<svg width="301" height="301" viewBox="0 0 301 301" fill="none" xmlns="http://www.w3.org/2000/svg">
<path d="M150.178 300.356C233.119 300.356 300.356 233.119 300.356 150.178C300.356 67.2369 233.119 0 150.178 0C67.2369 0 0 67.2369 0 150.178C0 233.119 67.2369 300.356 150.178 300.356Z" fill="#E3E4FF"/>
<path d="M150.655 284.335C225.657 284.335 286.457 223.535 286.457 148.533C286.457 73.532 225.657 12.7314 150.655 12.7314C75.654 12.7314 14.8534 73.532 14.8534 148.533C14.8534 223.535 75.654 284.335 150.655 284.335Z" fill="#D5D6FF"/>
<path d="M148.956 265.153C213.387 265.153 265.618 212.921 265.618 148.49C265.618 84.0596 213.387 31.8281 148.956 31.8281C84.5253 31.8281 32.2938 84.0596 32.2938 148.49C32.2938 212.921 84.5253 265.153 148.956 265.153Z" fill="#CDCFFE"/>
<path d="M148.999 244.019C201.734 244.019 244.484 201.269 244.484 148.534C244.484 95.7983 201.734 53.0479 148.999 53.0479C96.2632 53.0479 53.5128 95.7983 53.5128 148.534C53.5128 201.269 96.2632 244.019 148.999 244.019Z" fill="#BDC0FA"/>
<path d="M174.186 136.104C174.186 136.104 176.795 146.099 189.293 146.077C201.091 146.056 204.401 136.104 204.401 136.104" stroke="#4B4F8F" stroke-width="10.6095" stroke-linecap="round" stroke-linejoin="round"/>
<path d="M100.195 135.213C100.195 135.213 102.805 145.207 115.303 145.186C127.1 145.165 130.411 135.213 130.411 135.213" stroke="#4B4F8F" stroke-width="10.6095" stroke-linecap="round" stroke-linejoin="round"/>
<path d="M129.286 191.528C129.286 191.528 148.044 175.805 173.91 191.528" stroke="#4B4F8F" stroke-width="8.48762" stroke-linecap="round" stroke-linejoin="round"/>
</svg>
